<svg width="597" height="258" viewBox="0 0 597 258" fill="none" xmlns="http://www.w3.org/2000/svg">
<path d="M83.66 28.79C74.15 23.66 63.07 21.1 50.42 21.1H0V142.1H50.42C63.07 142.1 74.15 139.45 83.66 134.15C93.17 128.85 100.49 121.59 105.62 112.36C110.75 103.13 113.31 92.76 113.31 81.26C113.31 69.76 110.75 59.27 105.62 50.16C100.49 41.05 93.17 33.92 83.66 28.8V28.79ZM67.4 101.1C62.39 105.77 55.61 108.11 47.06 108.11H38V54.11H47.06C55.6 54.11 62.38 56.45 67.4 61.12C72.41 65.79 74.92 72.46 74.92 81.11C74.92 89.76 72.41 96.43 67.4 101.1Z" fill="#F5A623"/>
<path d="M165.01 45.1H127.01V141.1H165.01V45.1Z" fill="#1A1A1A"/>
<path d="M130.11 32.34C134.1 35.88 139.4 37.64 146.02 37.64C152.64 37.64 157.77 35.87 161.76 32.34C165.75 28.81 167.75 24.36 167.75 19C167.75 13.64 165.75 8.98999 161.76 5.39999C157.77 1.80999 152.52 0.0100098 146.02 0.0100098C139.52 0.0100098 134.1 1.80999 130.11 5.39999C126.12 8.98999 124.12 13.53 124.12 19C124.12 24.47 126.11 28.81 130.11 32.34Z" fill="#1A1A1A"/>
<path d="M243.01 58.34C240.6 53.87 237.1 50.35 232.52 47.77C227.93 45.19 222.49 43.9 216.19 43.9C208.62 43.9 201.8 45.88 195.73 49.83C189.65 53.78 184.87 59.52 181.37 67.02C177.87 74.53 176.13 83.38 176.13 93.58C176.13 103.78 177.88 112.63 181.37 120.14C184.87 127.65 189.65 133.38 195.73 137.33C201.8 141.28 208.63 143.26 216.19 143.26C222.49 143.26 227.94 141.97 232.52 139.39C237.1 136.81 240.6 133.29 243.01 128.82V140.34C243.01 146.64 241.75 150.94 239.23 153.23C236.71 155.52 233.21 156.67 228.74 156.67C221.52 156.67 217.39 154.15 216.36 149.11H178.88C179.78 158.07 182.72 165.68 187.66 171.96C196.76 166.1 207.58 162.69 219.21 162.69C236.2 162.69 251.49 169.95 262.16 181.54C268.41 177.26 273.04 171.78 276.02 165.11C279.34 157.66 281.01 149.41 281.01 140.36V45.13H243.01V58.37V58.34ZM239.43 105.56C236.81 108.41 233.44 109.84 229.34 109.84C225.24 109.84 221.87 108.42 219.25 105.56C216.63 102.71 215.31 98.72 215.31 93.58C215.31 88.44 216.62 84.46 219.25 81.6C221.87 78.75 225.24 77.32 229.34 77.32C233.44 77.32 236.81 78.75 239.43 81.6C242.05 84.45 243.36 88.44 243.36 93.58C243.36 98.72 242.05 102.71 239.43 105.56Z" fill="#1A1A1A"/>
<path d="M336.01 45.1H298.01V141.1H336.01V45.1Z" fill="#1A1A1A"/>
<path d="M333.18 5.38998C329.19 1.79998 323.94 0 317.44 0C310.94 0 305.52 1.79998 301.53 5.38998C297.54 8.97998 295.54 13.52 295.54 18.99C295.54 24.46 297.53 28.8 301.53 32.33C305.52 35.87 310.82 37.63 317.44 37.63C324.06 37.63 329.19 35.86 333.18 32.33C337.17 28.8 339.17 24.35 339.17 18.99C339.17 13.63 337.17 8.97998 333.18 5.38998Z" fill="#1A1A1A"/>
<path d="M502.01 58.21C499.6 53.78 496.1 50.3 491.52 47.74C486.93 45.19 481.49 43.91 475.19 43.91C467.62 43.91 460.8 45.87 454.73 49.78C448.65 53.7 443.87 59.37 440.37 66.8C436.87 74.23 435.13 83 435.13 93.1C435.13 103.2 436.88 111.97 440.37 119.4C443.87 126.83 448.65 132.51 454.73 136.42C460.8 140.33 467.63 142.29 475.19 142.29C481.49 142.29 486.94 141.01 491.52 138.46C496.1 135.91 499.6 132.42 502.01 127.99V141.1H540.01V45.1H502.01V58.21ZM498.1 105.56C495.48 108.41 492.11 109.84 488.01 109.84C483.91 109.84 480.54 108.42 477.92 105.56C475.3 102.71 473.98 98.72 473.98 93.58C473.98 88.44 475.29 84.46 477.92 81.6C480.54 78.75 483.91 77.32 488.01 77.32C492.11 77.32 495.48 78.75 498.1 81.6C500.72 84.45 502.03 88.44 502.03 93.58C502.03 98.72 500.72 102.71 498.1 105.56Z" fill="#1A1A1A"/>
<path d="M595.01 15.1H557.01V142.1H595.01V15.1Z" fill="#1A1A1A"/>
<path d="M77.07 157.88C84.1 161.23 89.82 165.95 94.23 172.06C98.64 178.17 101.58 185.3 103.03 193.44H68.99C67.44 190.05 65.23 187.4 62.37 185.51C59.51 183.62 56.24 182.67 52.55 182.67C47.12 182.67 42.83 184.71 39.68 188.78C36.53 192.85 34.95 198.33 34.95 205.22C34.95 212.11 36.53 217.58 39.68 221.66C42.83 225.73 47.12 227.77 52.55 227.77C56.23 227.77 59.51 226.82 62.37 224.93C65.23 223.04 67.44 220.4 68.99 217H103.03C101.58 225.15 98.64 232.27 94.23 238.38C89.82 244.49 84.1 249.22 77.07 252.56C70.04 255.91 62.06 257.58 53.14 257.58C42.76 257.58 33.75 255.38 26.09 250.96C18.43 246.55 12.54 240.37 8.41998 232.42C4.29998 224.47 2.23999 215.4 2.23999 205.22C2.23999 195.04 4.29998 185.97 8.41998 178.02C12.54 170.07 18.43 163.89 26.09 159.48C33.75 155.07 42.77 152.86 53.14 152.86C62.06 152.86 70.04 154.53 77.07 157.88Z" fill="#1A1A1A"/>
<path d="M159.03 178.54C163.78 175.68 168.73 174.25 173.87 174.25V208.72H164.71C158.6 208.72 154.12 209.79 151.26 211.92C148.4 214.05 146.97 217.84 146.97 223.27V256.87H114.68V174.84H146.97V189.97C150.27 185.22 154.29 181.41 159.04 178.55L159.03 178.54Z" fill="#1A1A1A"/>
<path d="M261.28 221.52H209.65C209.94 225.59 210.86 228.38 212.41 229.88C213.96 231.38 216 232.13 218.52 232.13C222.01 232.13 224.53 230.53 226.08 227.33H260.26C259.1 233.15 256.65 238.36 252.91 242.97C249.18 247.58 244.47 251.21 238.8 253.88C233.13 256.55 226.9 257.88 220.11 257.88C211.96 257.88 204.71 256.18 198.37 252.79C192.02 249.4 187.07 244.52 183.53 238.17C179.99 231.82 178.22 224.38 178.22 215.84C178.22 207.3 179.99 199.87 183.53 193.51C187.07 187.16 192.01 182.29 198.37 178.89C204.72 175.5 211.97 173.8 220.11 173.8C228.25 173.8 235.5 175.47 241.85 178.82C248.2 182.17 253.14 186.94 256.69 193.15C260.23 199.36 262 206.68 262 215.11C262 217.15 261.76 219.28 261.27 221.51L261.28 221.52ZM229.28 208.28C229.28 205.18 228.41 202.88 226.66 201.37C224.91 199.87 222.73 199.12 220.12 199.12C214.2 199.12 210.81 202.17 209.94 208.28H229.28Z" fill="#1A1A1A"/>
<path d="M315.53 177.08C319.41 179.26 322.37 182.24 324.4 186.03V174.83H356.54V256.86H324.4V245.66C322.36 249.44 319.4 252.42 315.53 254.61C311.65 256.79 307.04 257.88 301.71 257.88C295.31 257.88 289.54 256.21 284.4 252.86C279.26 249.51 275.21 244.67 272.25 238.32C269.29 231.97 267.81 224.48 267.81 215.85C267.81 207.22 269.29 199.73 272.25 193.38C275.21 187.03 279.25 182.18 284.4 178.84C289.54 175.49 295.31 173.82 301.71 173.82C307.04 173.82 311.65 174.91 315.53 177.09V177.08ZM303.9 205.66C301.67 208.09 300.55 211.48 300.55 215.84C300.55 220.2 301.66 223.6 303.9 226.02C306.13 228.44 308.99 229.66 312.48 229.66C315.97 229.66 318.83 228.45 321.06 226.02C323.29 223.6 324.41 220.2 324.41 215.84C324.41 211.48 323.29 208.08 321.06 205.66C318.83 203.24 315.97 202.02 312.48 202.02C308.99 202.02 306.13 203.23 303.9 205.66Z" fill="#1A1A1A"/>
<path d="M506.5 178.9C513.09 182.3 518.26 187.17 521.99 193.52C525.72 199.87 527.59 207.31 527.59 215.85C527.59 224.39 525.72 231.83 521.99 238.18C518.26 244.53 513.09 249.4 506.5 252.8C499.9 256.2 492.49 257.89 484.25 257.89C476.01 257.89 468.59 256.19 462 252.8C455.4 249.41 450.24 244.53 446.51 238.18C442.78 231.83 440.91 224.39 440.91 215.85C440.91 207.31 442.78 199.88 446.51 193.52C450.24 187.17 455.41 182.3 462 178.9C468.59 175.51 476.01 173.81 484.25 173.81C492.49 173.81 499.91 175.51 506.5 178.9ZM476.69 205.3C474.65 207.68 473.64 211.19 473.64 215.84C473.64 220.49 474.63 224.01 476.62 226.38C478.61 228.76 481.15 229.94 484.26 229.94C487.37 229.94 489.79 228.75 491.82 226.38C493.86 224 494.87 220.49 494.87 215.84C494.87 211.19 493.85 207.67 491.82 205.3C489.78 202.92 487.26 201.74 484.26 201.74C481.26 201.74 478.73 202.93 476.7 205.3H476.69Z" fill="#1A1A1A"/>
<path d="M582.14 178.54C586.89 175.68 591.84 174.25 596.98 174.25V208.72H587.82C581.71 208.72 577.23 209.79 574.37 211.92C571.51 214.05 570.08 217.84 570.08 223.27V256.87H537.79V174.84H570.08V189.97C573.38 185.22 577.4 181.41 582.15 178.55L582.14 178.54Z" fill="#1A1A1A"/>
<path d="M408.55 225.68C407.52 224.73 407.01 223.2 407.01 221.08V196.99V167.66V146.1H371.01V168.1H372.01V197.1H371.01V220.43C371.01 244.87 383.73 257.1 409.19 257.1H423.01V227.1H413.66C411.28 227.1 409.58 226.62 408.55 225.67V225.68Z" fill="#F5A623"/>
<path d="M407.01 44.1H371.01V218.1H407.01V44.1Z" fill="#F5A623"/>
<path d="M419.01 74.1H357.01V110.1H419.01V74.1Z" fill="#F5A623"/>
</svg>
